<svg viewBox="0 0 17 16" xmlns="http://www.w3.org/2000/svg"><path d="m14.4303745 10.2773865c.0013068 1.4504541-1.0432191 2.6999521-2.4635857 2.9456255-.1788366.0306932-.3594263.0488605-.5409083.0471394-.0611952-.0006693-.0852271.0238088-.1046375.0798725-.2835697.8141514-.8494661 1.2994741-1.7043187 1.4218645-.56551394.0808925-1.07869322-.0707569-1.52854183-.4243187-.06266135-.0492749-.10097211-.0501036-.16631076-.0034103-.52615139.3763187-1.11607968.54298-1.76028685.5040637-1.25708366-.0758884-2.31480478-1.0366853-2.51266932-2.2756335-.01360956-.0856414-.02807968-.1719203-.02938646-.258231-.00130677-.0717769-.02855777-.0994741-.09711553-.1128925-.38058965-.0741992-.72596016-.2309482-1.03066136-.4694502-.56076494-.4390438-.89721115-1.0123028-.97552191-1.7214024-.08930677-.81160155.16137052-1.5133386.73227092-2.09810354.0460239-.04691633.04889243-.07958566.017498-.13475697-.2194741-.38317132-.32350597-.79818327-.30661354-1.23827889.04213546-1.09835856.80643824-2.00580079 1.86954581-2.23047012.12299602-.02613545.18747411-.07435856.24152988-.19091633.52436654-1.12972112 1.40481275-1.81679681 2.62658168-2.04341036.85765737-.15917131 1.66674103.011251 2.41752988.45284462.06310757.03722709.11595219.04022311.18425498.02033466 1.19244621-.34597609 2.24905181-.09427888 3.14607171.75866136.5304861.50428685.8211315 1.14250199.9071873 1.87059761.0188366.15917131.0274103.31984064.0152988.47987251-.0045578.06052589.0140557.08583267.0713625.10702789.5375618.19898008.9082391.57003984 1.0704064 1.11888446.2019761.68270916.0323187 1.28137052-.4778327 1.77915538-.0442072.04321912-.0348685.0696733-.0098167.11286055.2696095.46447809.4092749.96443028.4086693 1.50247017zm-5.32076494-.2328925c.00044622.6171474.39662152 1.1626136.95843824 1.3479522.2815618.0929721.5719841.1370837.8667729.1500558.2104542.0090837.4205578-.0056096.615012-.1025339.1528924-.0763346.2249243-.2024223.2180079-.3704223-.0069163-.1691155-.0826454-.2955856-.2443984-.3629004-.0562231-.0233625-.1133067-.0423904-.173004-.052749-.1784223-.0318406-.3577051-.0586454-.535235-.0938327-.293004-.0583585-.4158725-.2134502-.419761-.509737-.0034103-.26208766.0676972-.50929084.1483347-.75384861.147506-.4476494.3463904-.87429482.536988-1.30444622.184-.41539442.3768925-.82737848.5068686-1.26489243.0715856-.24025498.105753-.48114741.0406693-.7296255-.0990598-.37714741-.3250677-.62992828-.7147729-.70262948-.3567809-.06639044-.7119044-.07394422-1.03454982.13883666-.10728287.07050199-.21045418.05364143-.30358566-.02855777-.07113944-.062502-.13883665-.12866933-.20847809-.19289243-.32911553-.30384064-.76423904-.31875698-1.11757768-.0412749-.14256574.112-.26253387.25086852-.4174024.34817529-.13839043.08691634-.27792828.11155379-.43117131.02983267-.1459761-.07786454-.29711554-.14639043-.44787251-.2147251-.15270119-.06897211-.30062151-.15416733-.47250996-.16866932-.54368127-.04627888-1.11263745.27681275-1.35247809.76793626-.10642231.21733864-.19330677.4431235-.27569721.6703745-.38043028 1.05058167-.69029482 2.12363346-1.01099601 3.19298805-.14361753.47859763.02588047.94954583.43113944 1.20803183.3161753.201498.6623745.2513148 1.02078087.1436176.29035857-.0873945.44937052-.3211156.56050996-.5836813.36933865-.87104383.70196016-1.7568765 1.05402391-2.63483666.09689243-.24159362.19069323-.48420717.29348207-.72318725.10377689-.24130677.4019761-.32350598.57886853-.1634741.10798406.09768924.13644621.22772908.12586454.36675697-.01163347.14858964-.06919522.28564143-.123251.42211952-.22906773.57912351-.4623745 1.15655777-.69246215 1.73523506-.04650199.11703586-.09689243.23311554-.1174502.3587251-.03521912.21568126.05016733.40685256.22658167.48293226.17998407.0776733.36682072.0906454.5534024.0229163.21711553-.0786932.34686852-.2486693.44682071-.44506768.3434263-.67442231.68420717-1.350502 1.02741036-2.02495618.15853387-.31158566.31984064-.62170518.48178486-.93144223.0601753-.11480478.13067729-.22358566.24309163-.29494821.10148204-.06422311.21083664-.06900398.31486854-.01058167.1015139.05686056.1083028.16070119.1040319.26320319-.0023267.05510757-.017753.10897211-.0389482.1602231-.0444941.10658168-.0860558.21475698-.1353945.31923506-.28545017.60050996-.57523503 1.19869323-.85813542 1.80050996-.11923506.25399204-.24334662.50919522-.22862152.77625496zm4.00395224 4.4256574c.0006693-.3983426-.3332271-.7314104-.7348526-.732494-.4115379-.001498-.7454024.3278406-.7471873.7363824-.0017211.3993626.3378486.7382311.7394104.7387411.407235.0004143.741992-.3343108.7426295-.7426295zm-12.41456578-6.10425499c.38731474.00086056.71321115-.32286852.71168127-.70670916-.00175299-.38447809-.32070119-.70326693-.70476494-.7043506-.3936255-.00105179-.70613546.31123506-.70591235.70546614.00031873.39008765.31190438.70473307.69899602.70559362zm8.67273306-7.89526693c-.38925896-.00216733-.70651792.30903586-.70871713.69482072-.00235856.38537052.31378486.70199203.7010996.70240637.38578486.00022311.69564945-.30881275.69635065-.69485259.0009243-.38792031-.30552993-.70043027-.68873312-.7023745zm5.73118722 4.36729881c-.0017211-.31987251-.2744223-.59190439-.5955697-.59407172-.3278406-.00235856-.6055458.27467729-.6033466.60184861.0023267.32634263.2670598.58798406.5953466.58843028.3381992.00066932.6054821-.26358566.6035697-.59620717zm-12.27898005-1.70801594c0 .30039841.23378487.53609562.53220718.53654183.30227888.00041435.53676494-.23655777.53568127-.54129083-.00108366-.29558566-.23528287-.52678885-.53265339-.52589642-.30581673.00060558-.53507569.22788845-.53523506.53064542zm5.59062949 12.38951395c.00258167-.2501992-.20328287-.456255-.45631873-.4571474-.25972908-.0007968-.46371315.2004781-.46304382.4567331.00066932.2527808.20360159.4530358.45877291.4530358.2549482.0002231.45839043-.1996175.46058964-.4526215zm7.13861356-7.10894024c-.2430917-.00175299-.4539602.20911553-.452016.45198406.0021036.24.2024542.43703586.4450678.43751394.2543426.00047809.4450996-.18680478.4457052-.43815139.0007012-.24873307-.1946136-.4496255-.438757-.45134661zm-10.67678089-8.38253387c-.21431076-.00086056-.37972909.16283666-.37972909.37609562 0 .21192032.16713944.37670119.38125897.37561753.20780876-.00108367.37064542-.16675697.37064542-.37717928.00003187-.21236654-.16025498-.3734502-.3721753-.37453387zm11.52490839 6.36267729c-.1746933-.00197609-.333004.15439044-.3352032.33150598-.0023586.18317131.1500876.33561753.3360637.33606374.1847012.00066933.3295618-.1429482.3308686-.32847808.0017529-.18661355-.1453387-.33673307-.3317291-.33909164zm-13.2287809 6.59754582c.00082868-.1773386-.15206375-.330008-.3321753-.3316972-.18256574-.0015618-.33265339.1520319-.33134662.3388685.00149801.1825339.14964144.3267251.3341514.3254502.18103586-.0011155.32876494-.1501195.32937052-.3326215z" fill="#fff"/></svg>